<svg width="375" height="812" viewBox="0 0 375 812" fill="none" xmlns="http://www.w3.org/2000/svg">
  <style>
    .bold { font-family: 'Plus Jakarta Sans', Arial, sans-serif; font-weight: 800; }
    .semi { font-family: 'Plus Jakarta Sans', Arial, sans-serif; font-weight: 600; }
    .regular { font-family: 'Plus Jakarta Sans', Arial, sans-serif; font-weight: 400; }
  </style>

  <rect width="375" height="812" fill="#f4f6f9"/>

  <!-- Status Bar -->
  <rect width="375" height="44" fill="#ffffff"/>
  <text x="24" y="28" class="bold" font-size="14" fill="#1f2937">9:41</text>
  <path d="M312 24h3v6h-3zm5-2h3v8h-3zm5-3h3v11h-3zm5-3h3v14h-3z" fill="#1f2937"/>
  <path d="M335 17a12 12 0 0 1 12 0l-6 8z" fill="#1f2937"/>
  <rect x="345" y="18" width="20" height="10" rx="3" fill="none" stroke="#1f2937" stroke-width="1.5"/>
  <rect x="347" y="20" width="13" height="6" rx="1.5" fill="#1f2937"/>
  <path d="M366 21v4" stroke="#1f2937" stroke-width="1.5" stroke-linecap="round"/>

  <!-- Custom Toolbar with Hamburger Icon on left & Logo on right -->
  <rect y="44" width="375" height="56" fill="#ffffff"/>
  <path d="M20 64h18M20 72h18M20 80h18" stroke="#1a5e35" stroke-width="2.5" stroke-linecap="round"/>
  <text x="355" y="78" class="bold" font-size="17" fill="#1a5e35" text-anchor="end">SINDESA</text>

  <!-- Welcome Card (BackgroundColor #1a5e35, cornerRadius 16dp) -->
  <rect x="16" y="112" width="343" height="100" rx="16" fill="#1a5e35"/>
  <text x="36" y="150" class="bold" font-size="20" fill="#ffffff">Halo, Ahmad Faisal!</text>
  <text x="36" y="174" class="regular" font-size="12" fill="#E8F5E9">Selamat datang di Dashboard Layanan Mandiri Desa Buttu Sawe.</text>

  <!-- Warning Alert Card (#FFF8E1, stroke #FFC107) -->
  <rect x="16" y="222" width="343" height="68" rx="12" fill="#FFF8E1" stroke="#FFC107" stroke-width="1"/>
  <circle cx="36" cy="256" r="12" fill="#FF8F00"/>
  <text x="36" y="261" class="bold" font-size="12" fill="#ffffff" text-anchor="middle">i</text>
  <text x="58" y="248" class="bold" font-size="13" fill="#FF8F00">Akun Menunggu Verifikasi</text>
  <text x="58" y="266" class="regular" font-size="11" fill="#F57C00">Pengajuan surat diproses setelah Admin memvalidasi NIK Anda.</text>

  <!-- 2 Stat Cards (Grid 2 Kolom) -->
  <!-- Stat 1: Total Pengajuan -->
  <rect x="16" y="302" width="166" height="82" rx="12" fill="#ffffff" stroke="#e5e7eb" stroke-width="1"/>
  <text x="32" y="342" class="bold" font-size="28" fill="#424242">3</text>
  <text x="32" y="364" class="bold" font-size="10" fill="#FF9800">TOTAL PENGAJUAN</text>

  <!-- Stat 2: Diproses Operator -->
  <rect x="193" y="302" width="166" height="82" rx="12" fill="#ffffff" stroke="#e5e7eb" stroke-width="1"/>
  <text x="209" y="342" class="bold" font-size="28" fill="#424242">1</text>
  <text x="209" y="364" class="bold" font-size="10" fill="#2196F3">DIPROSES OPERATOR</text>

  <!-- Section: Layanan Sering Digunakan -->
  <text x="16" y="412" class="bold" font-size="15" fill="#1a5e35">Layanan Sering Digunakan</text>
  
  <!-- Quick Card 1: KTP -->
  <rect x="16" y="424" width="160" height="105" rx="14" fill="#ffffff" stroke="#e5e7eb" stroke-width="1"/>
  <circle cx="42" cy="452" r="16" fill="#fef3c7"/>
  <path d="M34 456c0-3 3-5 8-5s8 2 8 5" fill="#cfa03f"/>
  <text x="42" y="488" class="bold" font-size="13" fill="#333333">Pengantar KTP</text>
  <text x="42" y="508" class="bold" font-size="11" fill="#1a5e35">Buat Surat →</text>

  <!-- Quick Card 2: KK -->
  <rect x="186" y="424" width="160" height="105" rx="14" fill="#ffffff" stroke="#e5e7eb" stroke-width="1"/>
  <circle cx="212" cy="452" r="16" fill="#fef3c7"/>
  <rect x="204" y="444" width="16" height="16" rx="2" fill="#cfa03f"/>
  <text x="212" y="488" class="bold" font-size="13" fill="#333333">Pengantar KK</text>
  <text x="212" y="508" class="bold" font-size="11" fill="#1a5e35">Buat Surat →</text>

  <!-- Section: Semua Layanan Surat Grid -->
  <text x="16" y="556" class="bold" font-size="15" fill="#1a5e35">Semua Layanan Surat</text>
  
  <!-- Grid 3 items preview -->
  <rect x="16" y="570" width="108" height="85" rx="12" fill="#ffffff" stroke="#e5e7eb" stroke-width="1"/>
  <circle cx="70" cy="598" r="16" fill="#fef3c7"/>
  <text x="70" y="632" class="bold" font-size="11" fill="#333333" text-anchor="middle">Pengantar KTP</text>

  <rect x="133" y="570" width="108" height="85" rx="12" fill="#ffffff" stroke="#e5e7eb" stroke-width="1"/>
  <circle cx="187" cy="598" r="16" fill="#fef3c7"/>
  <text x="187" y="632" class="bold" font-size="11" fill="#333333" text-anchor="middle">Pengantar KK</text>

  <rect x="251" y="570" width="108" height="85" rx="12" fill="#ffffff" stroke="#e5e7eb" stroke-width="1"/>
  <circle cx="305" cy="598" r="16" fill="#fef3c7"/>
  <text x="305" y="632" class="bold" font-size="11" fill="#333333" text-anchor="middle">Ket. Tidak Mampu</text>

  <!-- Section: Pengajuan Terakhir -->
  <text x="16" y="682" class="bold" font-size="15" fill="#1a5e35">Pengajuan Terakhir</text>
  <text x="359" y="682" class="bold" font-size="13" fill="#cfa03f" text-anchor="end">Lihat Semua &gt;</text>

  <!-- Item Pengajuan Mockup -->
  <rect x="16" y="694" width="343" height="68" rx="12" fill="#ffffff" stroke="#E0E0E0" stroke-width="1"/>
  <text x="32" y="722" class="bold" font-size="14" fill="#333333">Pengantar KTP</text>
  <text x="32" y="742" class="regular" font-size="12" fill="#757575">17 Agustus 2026</text>
  <rect x="265" y="714" width="80" height="24" rx="12" fill="#FFF8E1" stroke="#FF8F00" stroke-width="1"/>
  <text x="305" y="730" class="bold" font-size="11" fill="#FF8F00" text-anchor="middle">Menunggu</text>

  <!-- Home Indicator -->
  <rect x="120" y="798" width="135" height="4" rx="2" fill="#1f2937" opacity="0.3"/>
</svg>